#VRML V2.0 utf8
# Original illustrative model; repository MIT license.
Shape { appearance Appearance { material Material { diffuseColor 0.75 0.65 0.32 specularColor 0.25 0.25 0.25 shininess 0.4 } } geometry IndexedFaceSet { solid FALSE creaseAngle 0.6 coord Coordinate { point [
-1.2795276 -0.7086614 -0.3149606,
-1.2795276 -0.7086614 1.4566929,
-1.2795276 0.0000000 -0.3149606,
-1.2795276 0.0000000 1.4566929,
1.2795276 -0.7086614 -0.3149606,
1.2795276 -0.7086614 1.4566929,
1.2795276 0.0000000 -0.3149606,
1.2795276 0.0000000 1.4566929
] } coordIndex [
0 1 3 -1,
0 3 2 -1,
4 6 7 -1,
4 7 5 -1,
0 4 5 -1,
0 5 1 -1,
2 3 7 -1,
2 7 6 -1,
0 2 6 -1,
0 6 4 -1,
1 5 7 -1,
1 7 3 -1
] } }
Shape { appearance Appearance { material Material { diffuseColor 0.75 0.65 0.32 specularColor 0.25 0.25 0.25 shininess 0.4 } } geometry IndexedFaceSet { solid FALSE creaseAngle 0.6 coord Coordinate { point [
1.2007874 -3.7401575 0.5708661,
1.1950053 -3.7401575 0.6885639,
1.1777146 -3.7401575 0.8051281,
1.1490819 -3.7401575 0.9194363,
1.1093829 -3.7401575 1.0303876,
1.0589999 -3.7401575 1.1369134,
0.9984182 -3.7401575 1.2379879,
0.9282212 -3.7401575 1.3326376,
0.8490849 -3.7401575 1.4199511,
0.7617715 -3.7401575 1.4990874,
0.6671217 -3.7401575 1.5692844,
0.5660473 -3.7401575 1.6298661,
0.4595214 -3.7401575 1.6802490,
0.3485702 -3.7401575 1.7199480,
0.2342620 -3.7401575 1.7485808,
0.1176977 -3.7401575 1.7658714,
0.0000000 -3.7401575 1.7716535,
-0.1176977 -3.7401575 1.7658714,
-0.2342620 -3.7401575 1.7485808,
-0.3485702 -3.7401575 1.7199480,
-0.4595214 -3.7401575 1.6802490,
-0.5660473 -3.7401575 1.6298661,
-0.6671217 -3.7401575 1.5692844,
-0.7617715 -3.7401575 1.4990874,
-0.8490849 -3.7401575 1.4199511,
-0.9282212 -3.7401575 1.3326376,
-0.9984182 -3.7401575 1.2379879,
-1.0589999 -3.7401575 1.1369134,
-1.1093829 -3.7401575 1.0303876,
-1.1490819 -3.7401575 0.9194363,
-1.1777146 -3.7401575 0.8051281,
-1.1950053 -3.7401575 0.6885639,
-1.2007874 -3.7401575 0.5708661,
-1.1950053 -3.7401575 0.4531684,
-1.1777146 -3.7401575 0.3366041,
-1.1490819 -3.7401575 0.2222960,
-1.1093829 -3.7401575 0.1113447,
-1.0589999 -3.7401575 0.0048189,
-0.9984182 -3.7401575 -0.0962556,
-0.9282212 -3.7401575 -0.1909053,
-0.8490849 -3.7401575 -0.2782188,
-0.7617715 -3.7401575 -0.3573551,
-0.6671217 -3.7401575 -0.4275521,
-0.5660473 -3.7401575 -0.4881338,
-0.4595214 -3.7401575 -0.5385168,
-0.3485702 -3.7401575 -0.5782158,
-0.2342620 -3.7401575 -0.6068485,
-0.1176977 -3.7401575 -0.6241391,
-0.0000000 -3.7401575 -0.6299213,
0.1176977 -3.7401575 -0.6241391,
0.2342620 -3.7401575 -0.6068485,
0.3485702 -3.7401575 -0.5782158,
0.4595214 -3.7401575 -0.5385168,
0.5660473 -3.7401575 -0.4881338,
0.6671217 -3.7401575 -0.4275521,
0.7617715 -3.7401575 -0.3573551,
0.8490849 -3.7401575 -0.2782188,
0.9282212 -3.7401575 -0.1909053,
0.9984182 -3.7401575 -0.0962556,
1.0589999 -3.7401575 0.0048189,
1.1093829 -3.7401575 0.1113447,
1.1490819 -3.7401575 0.2222960,
1.1777146 -3.7401575 0.3366041,
1.1950053 -3.7401575 0.4531684,
1.2007874 -0.7086614 0.5708661,
1.1950053 -0.7086614 0.6885639,
1.1777146 -0.7086614 0.8051281,
1.1490819 -0.7086614 0.9194363,
1.1093829 -0.7086614 1.0303876,
1.0589999 -0.7086614 1.1369134,
0.9984182 -0.7086614 1.2379879,
0.9282212 -0.7086614 1.3326376,
0.8490849 -0.7086614 1.4199511,
0.7617715 -0.7086614 1.4990874,
0.6671217 -0.7086614 1.5692844,
0.5660473 -0.7086614 1.6298661,
0.4595214 -0.7086614 1.6802490,
0.3485702 -0.7086614 1.7199480,
0.2342620 -0.7086614 1.7485808,
0.1176977 -0.7086614 1.7658714,
0.0000000 -0.7086614 1.7716535,
-0.1176977 -0.7086614 1.7658714,
-0.2342620 -0.7086614 1.7485808,
-0.3485702 -0.7086614 1.7199480,
-0.4595214 -0.7086614 1.6802490,
-0.5660473 -0.7086614 1.6298661,
-0.6671217 -0.7086614 1.5692844,
-0.7617715 -0.7086614 1.4990874,
-0.8490849 -0.7086614 1.4199511,
-0.9282212 -0.7086614 1.3326376,
-0.9984182 -0.7086614 1.2379879,
-1.0589999 -0.7086614 1.1369134,
-1.1093829 -0.7086614 1.0303876,
-1.1490819 -0.7086614 0.9194363,
-1.1777146 -0.7086614 0.8051281,
-1.1950053 -0.7086614 0.6885639,
-1.2007874 -0.7086614 0.5708661,
-1.1950053 -0.7086614 0.4531684,
-1.1777146 -0.7086614 0.3366041,
-1.1490819 -0.7086614 0.2222960,
-1.1093829 -0.7086614 0.1113447,
-1.0589999 -0.7086614 0.0048189,
-0.9984182 -0.7086614 -0.0962556,
-0.9282212 -0.7086614 -0.1909053,
-0.8490849 -0.7086614 -0.2782188,
-0.7617715 -0.7086614 -0.3573551,
-0.6671217 -0.7086614 -0.4275521,
-0.5660473 -0.7086614 -0.4881338,
-0.4595214 -0.7086614 -0.5385168,
-0.3485702 -0.7086614 -0.5782158,
-0.2342620 -0.7086614 -0.6068485,
-0.1176977 -0.7086614 -0.6241391,
-0.0000000 -0.7086614 -0.6299213,
0.1176977 -0.7086614 -0.6241391,
0.2342620 -0.7086614 -0.6068485,
0.3485702 -0.7086614 -0.5782158,
0.4595214 -0.7086614 -0.5385168,
0.5660473 -0.7086614 -0.4881338,
0.6671217 -0.7086614 -0.4275521,
0.7617715 -0.7086614 -0.3573551,
0.8490849 -0.7086614 -0.2782188,
0.9282212 -0.7086614 -0.1909053,
0.9984182 -0.7086614 -0.0962556,
1.0589999 -0.7086614 0.0048189,
1.1093829 -0.7086614 0.1113447,
1.1490819 -0.7086614 0.2222960,
1.1777146 -0.7086614 0.3366041,
1.1950053 -0.7086614 0.4531684,
0.0000000 -3.7401575 0.5708661,
0.0000000 -0.7086614 0.5708661
] } coordIndex [
128 1 0 -1,
129 64 65 -1,
0 1 65 -1,
0 65 64 -1,
128 2 1 -1,
129 65 66 -1,
1 2 66 -1,
1 66 65 -1,
128 3 2 -1,
129 66 67 -1,
2 3 67 -1,
2 67 66 -1,
128 4 3 -1,
129 67 68 -1,
3 4 68 -1,
3 68 67 -1,
128 5 4 -1,
129 68 69 -1,
4 5 69 -1,
4 69 68 -1,
128 6 5 -1,
129 69 70 -1,
5 6 70 -1,
5 70 69 -1,
128 7 6 -1,
129 70 71 -1,
6 7 71 -1,
6 71 70 -1,
128 8 7 -1,
129 71 72 -1,
7 8 72 -1,
7 72 71 -1,
128 9 8 -1,
129 72 73 -1,
8 9 73 -1,
8 73 72 -1,
128 10 9 -1,
129 73 74 -1,
9 10 74 -1,
9 74 73 -1,
128 11 10 -1,
129 74 75 -1,
10 11 75 -1,
10 75 74 -1,
128 12 11 -1,
129 75 76 -1,
11 12 76 -1,
11 76 75 -1,
128 13 12 -1,
129 76 77 -1,
12 13 77 -1,
12 77 76 -1,
128 14 13 -1,
129 77 78 -1,
13 14 78 -1,
13 78 77 -1,
128 15 14 -1,
129 78 79 -1,
14 15 79 -1,
14 79 78 -1,
128 16 15 -1,
129 79 80 -1,
15 16 80 -1,
15 80 79 -1,
128 17 16 -1,
129 80 81 -1,
16 17 81 -1,
16 81 80 -1,
128 18 17 -1,
129 81 82 -1,
17 18 82 -1,
17 82 81 -1,
128 19 18 -1,
129 82 83 -1,
18 19 83 -1,
18 83 82 -1,
128 20 19 -1,
129 83 84 -1,
19 20 84 -1,
19 84 83 -1,
128 21 20 -1,
129 84 85 -1,
20 21 85 -1,
20 85 84 -1,
128 22 21 -1,
129 85 86 -1,
21 22 86 -1,
21 86 85 -1,
128 23 22 -1,
129 86 87 -1,
22 23 87 -1,
22 87 86 -1,
128 24 23 -1,
129 87 88 -1,
23 24 88 -1,
23 88 87 -1,
128 25 24 -1,
129 88 89 -1,
24 25 89 -1,
24 89 88 -1,
128 26 25 -1,
129 89 90 -1,
25 26 90 -1,
25 90 89 -1,
128 27 26 -1,
129 90 91 -1,
26 27 91 -1,
26 91 90 -1,
128 28 27 -1,
129 91 92 -1,
27 28 92 -1,
27 92 91 -1,
128 29 28 -1,
129 92 93 -1,
28 29 93 -1,
28 93 92 -1,
128 30 29 -1,
129 93 94 -1,
29 30 94 -1,
29 94 93 -1,
128 31 30 -1,
129 94 95 -1,
30 31 95 -1,
30 95 94 -1,
128 32 31 -1,
129 95 96 -1,
31 32 96 -1,
31 96 95 -1,
128 33 32 -1,
129 96 97 -1,
32 33 97 -1,
32 97 96 -1,
128 34 33 -1,
129 97 98 -1,
33 34 98 -1,
33 98 97 -1,
128 35 34 -1,
129 98 99 -1,
34 35 99 -1,
34 99 98 -1,
128 36 35 -1,
129 99 100 -1,
35 36 100 -1,
35 100 99 -1,
128 37 36 -1,
129 100 101 -1,
36 37 101 -1,
36 101 100 -1,
128 38 37 -1,
129 101 102 -1,
37 38 102 -1,
37 102 101 -1,
128 39 38 -1,
129 102 103 -1,
38 39 103 -1,
38 103 102 -1,
128 40 39 -1,
129 103 104 -1,
39 40 104 -1,
39 104 103 -1,
128 41 40 -1,
129 104 105 -1,
40 41 105 -1,
40 105 104 -1,
128 42 41 -1,
129 105 106 -1,
41 42 106 -1,
41 106 105 -1,
128 43 42 -1,
129 106 107 -1,
42 43 107 -1,
42 107 106 -1,
128 44 43 -1,
129 107 108 -1,
43 44 108 -1,
43 108 107 -1,
128 45 44 -1,
129 108 109 -1,
44 45 109 -1,
44 109 108 -1,
128 46 45 -1,
129 109 110 -1,
45 46 110 -1,
45 110 109 -1,
128 47 46 -1,
129 110 111 -1,
46 47 111 -1,
46 111 110 -1,
128 48 47 -1,
129 111 112 -1,
47 48 112 -1,
47 112 111 -1,
128 49 48 -1,
129 112 113 -1,
48 49 113 -1,
48 113 112 -1,
128 50 49 -1,
129 113 114 -1,
49 50 114 -1,
49 114 113 -1,
128 51 50 -1,
129 114 115 -1,
50 51 115 -1,
50 115 114 -1,
128 52 51 -1,
129 115 116 -1,
51 52 116 -1,
51 116 115 -1,
128 53 52 -1,
129 116 117 -1,
52 53 117 -1,
52 117 116 -1,
128 54 53 -1,
129 117 118 -1,
53 54 118 -1,
53 118 117 -1,
128 55 54 -1,
129 118 119 -1,
54 55 119 -1,
54 119 118 -1,
128 56 55 -1,
129 119 120 -1,
55 56 120 -1,
55 120 119 -1,
128 57 56 -1,
129 120 121 -1,
56 57 121 -1,
56 121 120 -1,
128 58 57 -1,
129 121 122 -1,
57 58 122 -1,
57 122 121 -1,
128 59 58 -1,
129 122 123 -1,
58 59 123 -1,
58 123 122 -1,
128 60 59 -1,
129 123 124 -1,
59 60 124 -1,
59 124 123 -1,
128 61 60 -1,
129 124 125 -1,
60 61 125 -1,
60 125 124 -1,
128 62 61 -1,
129 125 126 -1,
61 62 126 -1,
61 126 125 -1,
128 63 62 -1,
129 126 127 -1,
62 63 127 -1,
62 127 126 -1,
128 0 63 -1,
129 127 64 -1,
63 0 64 -1,
63 64 127 -1
] } }
Shape { appearance Appearance { material Material { diffuseColor 0.88 0.88 0.78 specularColor 0.25 0.25 0.25 shininess 0.4 } } geometry IndexedFaceSet { solid FALSE creaseAngle 0.6 coord Coordinate { point [
0.8661417 -3.7500000 0.5708661,
0.8619710 -3.7500000 0.6557629,
0.8494991 -3.7500000 0.7398420,
0.8288460 -3.7500000 0.8222938,
0.8002106 -3.7500000 0.9023242,
0.7638688 -3.7500000 0.9791625,
0.7201705 -3.7500000 1.0520687,
0.6695366 -3.7500000 1.1203406,
0.6124547 -3.7500000 1.1833208,
0.5494745 -3.7500000 1.2404028,
0.4812026 -3.7500000 1.2910367,
0.4082964 -3.7500000 1.3347350,
0.3314581 -3.7500000 1.3710768,
0.2514277 -3.7500000 1.3997121,
0.1689759 -3.7500000 1.4203652,
0.0848967 -3.7500000 1.4328372,
0.0000000 -3.7500000 1.4370079,
-0.0848967 -3.7500000 1.4328372,
-0.1689759 -3.7500000 1.4203652,
-0.2514277 -3.7500000 1.3997121,
-0.3314581 -3.7500000 1.3710768,
-0.4082964 -3.7500000 1.3347350,
-0.4812026 -3.7500000 1.2910367,
-0.5494745 -3.7500000 1.2404028,
-0.6124547 -3.7500000 1.1833208,
-0.6695366 -3.7500000 1.1203406,
-0.7201705 -3.7500000 1.0520687,
-0.7638688 -3.7500000 0.9791625,
-0.8002106 -3.7500000 0.9023242,
-0.8288460 -3.7500000 0.8222938,
-0.8494991 -3.7500000 0.7398420,
-0.8619710 -3.7500000 0.6557629,
-0.8661417 -3.7500000 0.5708661,
-0.8619710 -3.7500000 0.4859694,
-0.8494991 -3.7500000 0.4018903,
-0.8288460 -3.7500000 0.3194385,
-0.8002106 -3.7500000 0.2394081,
-0.7638688 -3.7500000 0.1625698,
-0.7201705 -3.7500000 0.0896636,
-0.6695366 -3.7500000 0.0213916,
-0.6124547 -3.7500000 -0.0415886,
-0.5494745 -3.7500000 -0.0986705,
-0.4812026 -3.7500000 -0.1493044,
-0.4082964 -3.7500000 -0.1930027,
-0.3314581 -3.7500000 -0.2293445,
-0.2514277 -3.7500000 -0.2579798,
-0.1689759 -3.7500000 -0.2786329,
-0.0848967 -3.7500000 -0.2911049,
-0.0000000 -3.7500000 -0.2952756,
0.0848967 -3.7500000 -0.2911049,
0.1689759 -3.7500000 -0.2786329,
0.2514277 -3.7500000 -0.2579798,
0.3314581 -3.7500000 -0.2293445,
0.4082964 -3.7500000 -0.1930027,
0.4812026 -3.7500000 -0.1493044,
0.5494745 -3.7500000 -0.0986705,
0.6124547 -3.7500000 -0.0415886,
0.6695366 -3.7500000 0.0213916,
0.7201705 -3.7500000 0.0896636,
0.7638688 -3.7500000 0.1625698,
0.8002106 -3.7500000 0.2394081,
0.8288460 -3.7500000 0.3194385,
0.8494991 -3.7500000 0.4018903,
0.8619710 -3.7500000 0.4859694,
0.8661417 -3.7381890 0.5708661,
0.8619710 -3.7381890 0.6557629,
0.8494991 -3.7381890 0.7398420,
0.8288460 -3.7381890 0.8222938,
0.8002106 -3.7381890 0.9023242,
0.7638688 -3.7381890 0.9791625,
0.7201705 -3.7381890 1.0520687,
0.6695366 -3.7381890 1.1203406,
0.6124547 -3.7381890 1.1833208,
0.5494745 -3.7381890 1.2404028,
0.4812026 -3.7381890 1.2910367,
0.4082964 -3.7381890 1.3347350,
0.3314581 -3.7381890 1.3710768,
0.2514277 -3.7381890 1.3997121,
0.1689759 -3.7381890 1.4203652,
0.0848967 -3.7381890 1.4328372,
0.0000000 -3.7381890 1.4370079,
-0.0848967 -3.7381890 1.4328372,
-0.1689759 -3.7381890 1.4203652,
-0.2514277 -3.7381890 1.3997121,
-0.3314581 -3.7381890 1.3710768,
-0.4082964 -3.7381890 1.3347350,
-0.4812026 -3.7381890 1.2910367,
-0.5494745 -3.7381890 1.2404028,
-0.6124547 -3.7381890 1.1833208,
-0.6695366 -3.7381890 1.1203406,
-0.7201705 -3.7381890 1.0520687,
-0.7638688 -3.7381890 0.9791625,
-0.8002106 -3.7381890 0.9023242,
-0.8288460 -3.7381890 0.8222938,
-0.8494991 -3.7381890 0.7398420,
-0.8619710 -3.7381890 0.6557629,
-0.8661417 -3.7381890 0.5708661,
-0.8619710 -3.7381890 0.4859694,
-0.8494991 -3.7381890 0.4018903,
-0.8288460 -3.7381890 0.3194385,
-0.8002106 -3.7381890 0.2394081,
-0.7638688 -3.7381890 0.1625698,
-0.7201705 -3.7381890 0.0896636,
-0.6695366 -3.7381890 0.0213916,
-0.6124547 -3.7381890 -0.0415886,
-0.5494745 -3.7381890 -0.0986705,
-0.4812026 -3.7381890 -0.1493044,
-0.4082964 -3.7381890 -0.1930027,
-0.3314581 -3.7381890 -0.2293445,
-0.2514277 -3.7381890 -0.2579798,
-0.1689759 -3.7381890 -0.2786329,
-0.0848967 -3.7381890 -0.2911049,
-0.0000000 -3.7381890 -0.2952756,
0.0848967 -3.7381890 -0.2911049,
0.1689759 -3.7381890 -0.2786329,
0.2514277 -3.7381890 -0.2579798,
0.3314581 -3.7381890 -0.2293445,
0.4082964 -3.7381890 -0.1930027,
0.4812026 -3.7381890 -0.1493044,
0.5494745 -3.7381890 -0.0986705,
0.6124547 -3.7381890 -0.0415886,
0.6695366 -3.7381890 0.0213916,
0.7201705 -3.7381890 0.0896636,
0.7638688 -3.7381890 0.1625698,
0.8002106 -3.7381890 0.2394081,
0.8288460 -3.7381890 0.3194385,
0.8494991 -3.7381890 0.4018903,
0.8619710 -3.7381890 0.4859694,
0.0000000 -3.7500000 0.5708661,
0.0000000 -3.7381890 0.5708661
] } coordIndex [
128 1 0 -1,
129 64 65 -1,
0 1 65 -1,
0 65 64 -1,
128 2 1 -1,
129 65 66 -1,
1 2 66 -1,
1 66 65 -1,
128 3 2 -1,
129 66 67 -1,
2 3 67 -1,
2 67 66 -1,
128 4 3 -1,
129 67 68 -1,
3 4 68 -1,
3 68 67 -1,
128 5 4 -1,
129 68 69 -1,
4 5 69 -1,
4 69 68 -1,
128 6 5 -1,
129 69 70 -1,
5 6 70 -1,
5 70 69 -1,
128 7 6 -1,
129 70 71 -1,
6 7 71 -1,
6 71 70 -1,
128 8 7 -1,
129 71 72 -1,
7 8 72 -1,
7 72 71 -1,
128 9 8 -1,
129 72 73 -1,
8 9 73 -1,
8 73 72 -1,
128 10 9 -1,
129 73 74 -1,
9 10 74 -1,
9 74 73 -1,
128 11 10 -1,
129 74 75 -1,
10 11 75 -1,
10 75 74 -1,
128 12 11 -1,
129 75 76 -1,
11 12 76 -1,
11 76 75 -1,
128 13 12 -1,
129 76 77 -1,
12 13 77 -1,
12 77 76 -1,
128 14 13 -1,
129 77 78 -1,
13 14 78 -1,
13 78 77 -1,
128 15 14 -1,
129 78 79 -1,
14 15 79 -1,
14 79 78 -1,
128 16 15 -1,
129 79 80 -1,
15 16 80 -1,
15 80 79 -1,
128 17 16 -1,
129 80 81 -1,
16 17 81 -1,
16 81 80 -1,
128 18 17 -1,
129 81 82 -1,
17 18 82 -1,
17 82 81 -1,
128 19 18 -1,
129 82 83 -1,
18 19 83 -1,
18 83 82 -1,
128 20 19 -1,
129 83 84 -1,
19 20 84 -1,
19 84 83 -1,
128 21 20 -1,
129 84 85 -1,
20 21 85 -1,
20 85 84 -1,
128 22 21 -1,
129 85 86 -1,
21 22 86 -1,
21 86 85 -1,
128 23 22 -1,
129 86 87 -1,
22 23 87 -1,
22 87 86 -1,
128 24 23 -1,
129 87 88 -1,
23 24 88 -1,
23 88 87 -1,
128 25 24 -1,
129 88 89 -1,
24 25 89 -1,
24 89 88 -1,
128 26 25 -1,
129 89 90 -1,
25 26 90 -1,
25 90 89 -1,
128 27 26 -1,
129 90 91 -1,
26 27 91 -1,
26 91 90 -1,
128 28 27 -1,
129 91 92 -1,
27 28 92 -1,
27 92 91 -1,
128 29 28 -1,
129 92 93 -1,
28 29 93 -1,
28 93 92 -1,
128 30 29 -1,
129 93 94 -1,
29 30 94 -1,
29 94 93 -1,
128 31 30 -1,
129 94 95 -1,
30 31 95 -1,
30 95 94 -1,
128 32 31 -1,
129 95 96 -1,
31 32 96 -1,
31 96 95 -1,
128 33 32 -1,
129 96 97 -1,
32 33 97 -1,
32 97 96 -1,
128 34 33 -1,
129 97 98 -1,
33 34 98 -1,
33 98 97 -1,
128 35 34 -1,
129 98 99 -1,
34 35 99 -1,
34 99 98 -1,
128 36 35 -1,
129 99 100 -1,
35 36 100 -1,
35 100 99 -1,
128 37 36 -1,
129 100 101 -1,
36 37 101 -1,
36 101 100 -1,
128 38 37 -1,
129 101 102 -1,
37 38 102 -1,
37 102 101 -1,
128 39 38 -1,
129 102 103 -1,
38 39 103 -1,
38 103 102 -1,
128 40 39 -1,
129 103 104 -1,
39 40 104 -1,
39 104 103 -1,
128 41 40 -1,
129 104 105 -1,
40 41 105 -1,
40 105 104 -1,
128 42 41 -1,
129 105 106 -1,
41 42 106 -1,
41 106 105 -1,
128 43 42 -1,
129 106 107 -1,
42 43 107 -1,
42 107 106 -1,
128 44 43 -1,
129 107 108 -1,
43 44 108 -1,
43 108 107 -1,
128 45 44 -1,
129 108 109 -1,
44 45 109 -1,
44 109 108 -1,
128 46 45 -1,
129 109 110 -1,
45 46 110 -1,
45 110 109 -1,
128 47 46 -1,
129 110 111 -1,
46 47 111 -1,
46 111 110 -1,
128 48 47 -1,
129 111 112 -1,
47 48 112 -1,
47 112 111 -1,
128 49 48 -1,
129 112 113 -1,
48 49 113 -1,
48 113 112 -1,
128 50 49 -1,
129 113 114 -1,
49 50 114 -1,
49 114 113 -1,
128 51 50 -1,
129 114 115 -1,
50 51 115 -1,
50 115 114 -1,
128 52 51 -1,
129 115 116 -1,
51 52 116 -1,
51 116 115 -1,
128 53 52 -1,
129 116 117 -1,
52 53 117 -1,
52 117 116 -1,
128 54 53 -1,
129 117 118 -1,
53 54 118 -1,
53 118 117 -1,
128 55 54 -1,
129 118 119 -1,
54 55 119 -1,
54 119 118 -1,
128 56 55 -1,
129 119 120 -1,
55 56 120 -1,
55 120 119 -1,
128 57 56 -1,
129 120 121 -1,
56 57 121 -1,
56 121 120 -1,
128 58 57 -1,
129 121 122 -1,
57 58 122 -1,
57 122 121 -1,
128 59 58 -1,
129 122 123 -1,
58 59 123 -1,
58 123 122 -1,
128 60 59 -1,
129 123 124 -1,
59 60 124 -1,
59 124 123 -1,
128 61 60 -1,
129 124 125 -1,
60 61 125 -1,
60 125 124 -1,
128 62 61 -1,
129 125 126 -1,
61 62 126 -1,
61 126 125 -1,
128 63 62 -1,
129 126 127 -1,
62 63 127 -1,
62 127 126 -1,
128 0 63 -1,
129 127 64 -1,
63 0 64 -1,
63 64 127 -1
] } }
Shape { appearance Appearance { material Material { diffuseColor 0.12 0.12 0.12 specularColor 0.25 0.25 0.25 shininess 0.4 } } geometry IndexedFaceSet { solid FALSE creaseAngle 0.6 coord Coordinate { point [
0.2165354 -3.7618110 0.5708661,
0.2154928 -3.7618110 0.5920903,
0.2123748 -3.7618110 0.6131101,
0.2072115 -3.7618110 0.6337231,
0.2000527 -3.7618110 0.6537307,
0.1909672 -3.7618110 0.6729402,
0.1800426 -3.7618110 0.6911668,
0.1673842 -3.7618110 0.7082348,
0.1531137 -3.7618110 0.7239798,
0.1373686 -3.7618110 0.7382503,
0.1203006 -3.7618110 0.7509088,
0.1020741 -3.7618110 0.7618333,
0.0828645 -3.7618110 0.7709188,
0.0628569 -3.7618110 0.7780776,
0.0422440 -3.7618110 0.7832409,
0.0212242 -3.7618110 0.7863589,
0.0000000 -3.7618110 0.7874016,
-0.0212242 -3.7618110 0.7863589,
-0.0422440 -3.7618110 0.7832409,
-0.0628569 -3.7618110 0.7780776,
-0.0828645 -3.7618110 0.7709188,
-0.1020741 -3.7618110 0.7618333,
-0.1203006 -3.7618110 0.7509088,
-0.1373686 -3.7618110 0.7382503,
-0.1531137 -3.7618110 0.7239798,
-0.1673842 -3.7618110 0.7082348,
-0.1800426 -3.7618110 0.6911668,
-0.1909672 -3.7618110 0.6729402,
-0.2000527 -3.7618110 0.6537307,
-0.2072115 -3.7618110 0.6337231,
-0.2123748 -3.7618110 0.6131101,
-0.2154928 -3.7618110 0.5920903,
-0.2165354 -3.7618110 0.5708661,
-0.2154928 -3.7618110 0.5496420,
-0.2123748 -3.7618110 0.5286222,
-0.2072115 -3.7618110 0.5080092,
-0.2000527 -3.7618110 0.4880016,
-0.1909672 -3.7618110 0.4687920,
-0.1800426 -3.7618110 0.4505655,
-0.1673842 -3.7618110 0.4334975,
-0.1531137 -3.7618110 0.4177525,
-0.1373686 -3.7618110 0.4034820,
-0.1203006 -3.7618110 0.3908235,
-0.1020741 -3.7618110 0.3798989,
-0.0828645 -3.7618110 0.3708135,
-0.0628569 -3.7618110 0.3636547,
-0.0422440 -3.7618110 0.3584914,
-0.0212242 -3.7618110 0.3553734,
-0.0000000 -3.7618110 0.3543307,
0.0212242 -3.7618110 0.3553734,
0.0422440 -3.7618110 0.3584914,
0.0628569 -3.7618110 0.3636547,
0.0828645 -3.7618110 0.3708135,
0.1020741 -3.7618110 0.3798989,
0.1203006 -3.7618110 0.3908235,
0.1373686 -3.7618110 0.4034820,
0.1531137 -3.7618110 0.4177525,
0.1673842 -3.7618110 0.4334975,
0.1800426 -3.7618110 0.4505655,
0.1909672 -3.7618110 0.4687920,
0.2000527 -3.7618110 0.4880016,
0.2072115 -3.7618110 0.5080092,
0.2123748 -3.7618110 0.5286222,
0.2154928 -3.7618110 0.5496420,
0.2165354 -3.7500000 0.5708661,
0.2154928 -3.7500000 0.5920903,
0.2123748 -3.7500000 0.6131101,
0.2072115 -3.7500000 0.6337231,
0.2000527 -3.7500000 0.6537307,
0.1909672 -3.7500000 0.6729402,
0.1800426 -3.7500000 0.6911668,
0.1673842 -3.7500000 0.7082348,
0.1531137 -3.7500000 0.7239798,
0.1373686 -3.7500000 0.7382503,
0.1203006 -3.7500000 0.7509088,
0.1020741 -3.7500000 0.7618333,
0.0828645 -3.7500000 0.7709188,
0.0628569 -3.7500000 0.7780776,
0.0422440 -3.7500000 0.7832409,
0.0212242 -3.7500000 0.7863589,
0.0000000 -3.7500000 0.7874016,
-0.0212242 -3.7500000 0.7863589,
-0.0422440 -3.7500000 0.7832409,
-0.0628569 -3.7500000 0.7780776,
-0.0828645 -3.7500000 0.7709188,
-0.1020741 -3.7500000 0.7618333,
-0.1203006 -3.7500000 0.7509088,
-0.1373686 -3.7500000 0.7382503,
-0.1531137 -3.7500000 0.7239798,
-0.1673842 -3.7500000 0.7082348,
-0.1800426 -3.7500000 0.6911668,
-0.1909672 -3.7500000 0.6729402,
-0.2000527 -3.7500000 0.6537307,
-0.2072115 -3.7500000 0.6337231,
-0.2123748 -3.7500000 0.6131101,
-0.2154928 -3.7500000 0.5920903,
-0.2165354 -3.7500000 0.5708661,
-0.2154928 -3.7500000 0.5496420,
-0.2123748 -3.7500000 0.5286222,
-0.2072115 -3.7500000 0.5080092,
-0.2000527 -3.7500000 0.4880016,
-0.1909672 -3.7500000 0.4687920,
-0.1800426 -3.7500000 0.4505655,
-0.1673842 -3.7500000 0.4334975,
-0.1531137 -3.7500000 0.4177525,
-0.1373686 -3.7500000 0.4034820,
-0.1203006 -3.7500000 0.3908235,
-0.1020741 -3.7500000 0.3798989,
-0.0828645 -3.7500000 0.3708135,
-0.0628569 -3.7500000 0.3636547,
-0.0422440 -3.7500000 0.3584914,
-0.0212242 -3.7500000 0.3553734,
-0.0000000 -3.7500000 0.3543307,
0.0212242 -3.7500000 0.3553734,
0.0422440 -3.7500000 0.3584914,
0.0628569 -3.7500000 0.3636547,
0.0828645 -3.7500000 0.3708135,
0.1020741 -3.7500000 0.3798989,
0.1203006 -3.7500000 0.3908235,
0.1373686 -3.7500000 0.4034820,
0.1531137 -3.7500000 0.4177525,
0.1673842 -3.7500000 0.4334975,
0.1800426 -3.7500000 0.4505655,
0.1909672 -3.7500000 0.4687920,
0.2000527 -3.7500000 0.4880016,
0.2072115 -3.7500000 0.5080092,
0.2123748 -3.7500000 0.5286222,
0.2154928 -3.7500000 0.5496420,
0.0000000 -3.7618110 0.5708661,
0.0000000 -3.7500000 0.5708661
] } coordIndex [
128 1 0 -1,
129 64 65 -1,
0 1 65 -1,
0 65 64 -1,
128 2 1 -1,
129 65 66 -1,
1 2 66 -1,
1 66 65 -1,
128 3 2 -1,
129 66 67 -1,
2 3 67 -1,
2 67 66 -1,
128 4 3 -1,
129 67 68 -1,
3 4 68 -1,
3 68 67 -1,
128 5 4 -1,
129 68 69 -1,
4 5 69 -1,
4 69 68 -1,
128 6 5 -1,
129 69 70 -1,
5 6 70 -1,
5 70 69 -1,
128 7 6 -1,
129 70 71 -1,
6 7 71 -1,
6 71 70 -1,
128 8 7 -1,
129 71 72 -1,
7 8 72 -1,
7 72 71 -1,
128 9 8 -1,
129 72 73 -1,
8 9 73 -1,
8 73 72 -1,
128 10 9 -1,
129 73 74 -1,
9 10 74 -1,
9 74 73 -1,
128 11 10 -1,
129 74 75 -1,
10 11 75 -1,
10 75 74 -1,
128 12 11 -1,
129 75 76 -1,
11 12 76 -1,
11 76 75 -1,
128 13 12 -1,
129 76 77 -1,
12 13 77 -1,
12 77 76 -1,
128 14 13 -1,
129 77 78 -1,
13 14 78 -1,
13 78 77 -1,
128 15 14 -1,
129 78 79 -1,
14 15 79 -1,
14 79 78 -1,
128 16 15 -1,
129 79 80 -1,
15 16 80 -1,
15 80 79 -1,
128 17 16 -1,
129 80 81 -1,
16 17 81 -1,
16 81 80 -1,
128 18 17 -1,
129 81 82 -1,
17 18 82 -1,
17 82 81 -1,
128 19 18 -1,
129 82 83 -1,
18 19 83 -1,
18 83 82 -1,
128 20 19 -1,
129 83 84 -1,
19 20 84 -1,
19 84 83 -1,
128 21 20 -1,
129 84 85 -1,
20 21 85 -1,
20 85 84 -1,
128 22 21 -1,
129 85 86 -1,
21 22 86 -1,
21 86 85 -1,
128 23 22 -1,
129 86 87 -1,
22 23 87 -1,
22 87 86 -1,
128 24 23 -1,
129 87 88 -1,
23 24 88 -1,
23 88 87 -1,
128 25 24 -1,
129 88 89 -1,
24 25 89 -1,
24 89 88 -1,
128 26 25 -1,
129 89 90 -1,
25 26 90 -1,
25 90 89 -1,
128 27 26 -1,
129 90 91 -1,
26 27 91 -1,
26 91 90 -1,
128 28 27 -1,
129 91 92 -1,
27 28 92 -1,
27 92 91 -1,
128 29 28 -1,
129 92 93 -1,
28 29 93 -1,
28 93 92 -1,
128 30 29 -1,
129 93 94 -1,
29 30 94 -1,
29 94 93 -1,
128 31 30 -1,
129 94 95 -1,
30 31 95 -1,
30 95 94 -1,
128 32 31 -1,
129 95 96 -1,
31 32 96 -1,
31 96 95 -1,
128 33 32 -1,
129 96 97 -1,
32 33 97 -1,
32 97 96 -1,
128 34 33 -1,
129 97 98 -1,
33 34 98 -1,
33 98 97 -1,
128 35 34 -1,
129 98 99 -1,
34 35 99 -1,
34 99 98 -1,
128 36 35 -1,
129 99 100 -1,
35 36 100 -1,
35 100 99 -1,
128 37 36 -1,
129 100 101 -1,
36 37 101 -1,
36 101 100 -1,
128 38 37 -1,
129 101 102 -1,
37 38 102 -1,
37 102 101 -1,
128 39 38 -1,
129 102 103 -1,
38 39 103 -1,
38 103 102 -1,
128 40 39 -1,
129 103 104 -1,
39 40 104 -1,
39 104 103 -1,
128 41 40 -1,
129 104 105 -1,
40 41 105 -1,
40 105 104 -1,
128 42 41 -1,
129 105 106 -1,
41 42 106 -1,
41 106 105 -1,
128 43 42 -1,
129 106 107 -1,
42 43 107 -1,
42 107 106 -1,
128 44 43 -1,
129 107 108 -1,
43 44 108 -1,
43 108 107 -1,
128 45 44 -1,
129 108 109 -1,
44 45 109 -1,
44 109 108 -1,
128 46 45 -1,
129 109 110 -1,
45 46 110 -1,
45 110 109 -1,
128 47 46 -1,
129 110 111 -1,
46 47 111 -1,
46 111 110 -1,
128 48 47 -1,
129 111 112 -1,
47 48 112 -1,
47 112 111 -1,
128 49 48 -1,
129 112 113 -1,
48 49 113 -1,
48 113 112 -1,
128 50 49 -1,
129 113 114 -1,
49 50 114 -1,
49 114 113 -1,
128 51 50 -1,
129 114 115 -1,
50 51 115 -1,
50 115 114 -1,
128 52 51 -1,
129 115 116 -1,
51 52 116 -1,
51 116 115 -1,
128 53 52 -1,
129 116 117 -1,
52 53 117 -1,
52 117 116 -1,
128 54 53 -1,
129 117 118 -1,
53 54 118 -1,
53 118 117 -1,
128 55 54 -1,
129 118 119 -1,
54 55 119 -1,
54 119 118 -1,
128 56 55 -1,
129 119 120 -1,
55 56 120 -1,
55 120 119 -1,
128 57 56 -1,
129 120 121 -1,
56 57 121 -1,
56 121 120 -1,
128 58 57 -1,
129 121 122 -1,
57 58 122 -1,
57 122 121 -1,
128 59 58 -1,
129 122 123 -1,
58 59 123 -1,
58 123 122 -1,
128 60 59 -1,
129 123 124 -1,
59 60 124 -1,
59 124 123 -1,
128 61 60 -1,
129 124 125 -1,
60 61 125 -1,
60 125 124 -1,
128 62 61 -1,
129 125 126 -1,
61 62 126 -1,
61 126 125 -1,
128 63 62 -1,
129 126 127 -1,
62 63 127 -1,
62 127 126 -1,
128 0 63 -1,
129 127 64 -1,
63 0 64 -1,
63 64 127 -1
] } }
Shape { appearance Appearance { material Material { diffuseColor 0.75 0.65 0.32 specularColor 0.25 0.25 0.25 shininess 0.4 } } geometry IndexedFaceSet { solid FALSE creaseAngle 0.6 coord Coordinate { point [
-1.2795276 0.0000000 0.0000000,
-1.2795276 0.0000000 0.1181102,
-1.2795276 1.5354331 0.0000000,
-1.2795276 1.5354331 0.1181102,
-0.8858268 0.0000000 0.0000000,
-0.8858268 0.0000000 0.1181102,
-0.8858268 1.5354331 0.0000000,
-0.8858268 1.5354331 0.1181102
] } coordIndex [
0 1 3 -1,
0 3 2 -1,
4 6 7 -1,
4 7 5 -1,
0 4 5 -1,
0 5 1 -1,
2 3 7 -1,
2 7 6 -1,
0 2 6 -1,
0 6 4 -1,
1 5 7 -1,
1 7 3 -1
] } }
Shape { appearance Appearance { material Material { diffuseColor 0.75 0.65 0.32 specularColor 0.25 0.25 0.25 shininess 0.4 } } geometry IndexedFaceSet { solid FALSE creaseAngle 0.6 coord Coordinate { point [
-1.2795276 0.0000000 -0.7480315,
-1.2795276 0.0000000 -0.6299213,
-1.2795276 1.5354331 -0.7480315,
-1.2795276 1.5354331 -0.6299213,
-0.8858268 0.0000000 -0.7480315,
-0.8858268 0.0000000 -0.6299213,
-0.8858268 1.5354331 -0.7480315,
-0.8858268 1.5354331 -0.6299213
] } coordIndex [
0 1 3 -1,
0 3 2 -1,
4 6 7 -1,
4 7 5 -1,
0 4 5 -1,
0 5 1 -1,
2 3 7 -1,
2 7 6 -1,
0 2 6 -1,
0 6 4 -1,
1 5 7 -1,
1 7 3 -1
] } }
Shape { appearance Appearance { material Material { diffuseColor 0.75 0.65 0.32 specularColor 0.25 0.25 0.25 shininess 0.4 } } geometry IndexedFaceSet { solid FALSE creaseAngle 0.6 coord Coordinate { point [
0.8858268 0.0000000 0.0000000,
0.8858268 0.0000000 0.1181102,
0.8858268 1.5354331 0.0000000,
0.8858268 1.5354331 0.1181102,
1.2795276 0.0000000 0.0000000,
1.2795276 0.0000000 0.1181102,
1.2795276 1.5354331 0.0000000,
1.2795276 1.5354331 0.1181102
] } coordIndex [
0 1 3 -1,
0 3 2 -1,
4 6 7 -1,
4 7 5 -1,
0 4 5 -1,
0 5 1 -1,
2 3 7 -1,
2 7 6 -1,
0 2 6 -1,
0 6 4 -1,
1 5 7 -1,
1 7 3 -1
] } }
Shape { appearance Appearance { material Material { diffuseColor 0.75 0.65 0.32 specularColor 0.25 0.25 0.25 shininess 0.4 } } geometry IndexedFaceSet { solid FALSE creaseAngle 0.6 coord Coordinate { point [
0.8858268 0.0000000 -0.7480315,
0.8858268 0.0000000 -0.6299213,
0.8858268 1.5354331 -0.7480315,
0.8858268 1.5354331 -0.6299213,
1.2795276 0.0000000 -0.7480315,
1.2795276 0.0000000 -0.6299213,
1.2795276 1.5354331 -0.7480315,
1.2795276 1.5354331 -0.6299213
] } coordIndex [
0 1 3 -1,
0 3 2 -1,
4 6 7 -1,
4 7 5 -1,
0 4 5 -1,
0 5 1 -1,
2 3 7 -1,
2 7 6 -1,
0 2 6 -1,
0 6 4 -1,
1 5 7 -1,
1 7 3 -1
] } }
Shape { appearance Appearance { material Material { diffuseColor 0.75 0.65 0.32 specularColor 0.25 0.25 0.25 shininess 0.4 } } geometry IndexedFaceSet { solid FALSE creaseAngle 0.6 coord Coordinate { point [
-0.1574803 0.0000000 0.0000000,
-0.1574803 0.0000000 0.1181102,
-0.1574803 1.5354331 0.0000000,
-0.1574803 1.5354331 0.1181102,
0.1574803 0.0000000 0.0000000,
0.1574803 0.0000000 0.1181102,
0.1574803 1.5354331 0.0000000,
0.1574803 1.5354331 0.1181102
] } coordIndex [
0 1 3 -1,
0 3 2 -1,
4 6 7 -1,
4 7 5 -1,
0 4 5 -1,
0 5 1 -1,
2 3 7 -1,
2 7 6 -1,
0 2 6 -1,
0 6 4 -1,
1 5 7 -1,
1 7 3 -1
] } }
